<svg width="1440" height="980" viewBox="0 0 1440 980" fill="none" xmlns="http://www.w3.org/2000/svg">
  <rect width="1440" height="980" rx="32" fill="#F5F0E6"/>
  <rect x="46" y="42" width="1348" height="896" rx="28" fill="#F9F6EF" stroke="#D8D0C2"/>
  <rect x="46" y="42" width="1348" height="120" rx="28" fill="#F7F4ED"/>
  <text x="92" y="92" fill="#0E6B5A" font-family="Georgia, serif" font-size="24" font-weight="700" letter-spacing="6">METAENERGY DASHBOARD</text>
  <text x="92" y="140" fill="#123524" font-family="Georgia, serif" font-size="52" font-weight="700">Preview UI</text>
  <text x="92" y="178" fill="#6C6C67" font-family="Arial, sans-serif" font-size="22">Preview only. Actual data appears after login.</text>
  <rect x="1036" y="80" width="122" height="52" rx="26" fill="#FFFFFF" stroke="#D8D0C2"/>
  <text x="1065" y="112" fill="#222222" font-family="Arial, sans-serif" font-size="18">Overview</text>
  <rect x="1175" y="80" width="118" height="52" rx="26" fill="#FFFFFF" stroke="#D8D0C2"/>
  <text x="1201" y="112" fill="#222222" font-family="Arial, sans-serif" font-size="18">Points</text>
  <rect x="1310" y="80" width="84" height="52" rx="26" fill="#123524"/>
  <text x="1333" y="112" fill="#FFFFFF" font-family="Arial, sans-serif" font-size="18" font-weight="700">Login</text>

  <rect x="78" y="210" width="510" height="220" rx="28" fill="#FFFFFF" stroke="#D8D0C2"/>
  <text x="112" y="272" fill="#7A7A74" font-family="Arial, sans-serif" font-size="20">Referral code preview</text>
  <text x="112" y="338" fill="#123524" font-family="Georgia, serif" font-size="62" font-weight="700">PREVIEW</text>
  <text x="112" y="392" fill="#7A7A74" font-family="Arial, sans-serif" font-size="20">Actual share links appear after login</text>

  <rect x="612" y="210" width="430" height="220" rx="28" fill="#FFFFFF" stroke="#D8D0C2"/>
  <text x="646" y="272" fill="#7A7A74" font-family="Arial, sans-serif" font-size="20">Tier preview</text>
  <text x="646" y="338" fill="#123524" font-family="Georgia, serif" font-size="62" font-weight="700">Sample</text>
  <rect x="646" y="374" width="280" height="14" rx="7" fill="#E9E1D2"/>
  <rect x="646" y="374" width="184" height="14" rx="7" fill="#D2A739"/>
  <text x="646" y="412" fill="#7A7A74" font-family="Arial, sans-serif" font-size="18">Visual progress only</text>

  <rect x="1064" y="210" width="330" height="220" rx="28" fill="#FFFFFF" stroke="#D8D0C2"/>
  <text x="1098" y="272" fill="#7A7A74" font-family="Arial, sans-serif" font-size="20">Points preview</text>
  <text x="1098" y="338" fill="#123524" font-family="Georgia, serif" font-size="62" font-weight="700">...</text>
  <text x="1098" y="394" fill="#7A7A74" font-family="Arial, sans-serif" font-size="18">Real balances appear after login</text>

  <rect x="78" y="458" width="510" height="212" rx="28" fill="#FFFFFF" stroke="#D8D0C2"/>
  <text x="112" y="518" fill="#7A7A74" font-family="Arial, sans-serif" font-size="20">Commission preview</text>
  <text x="112" y="584" fill="#123524" font-family="Georgia, serif" font-size="62" font-weight="700">RM --</text>
  <text x="112" y="638" fill="#7A7A74" font-family="Arial, sans-serif" font-size="18">Actual figures appear after login</text>

  <rect x="612" y="458" width="782" height="212" rx="28" fill="#FFFFFF" stroke="#D8D0C2"/>
  <text x="646" y="518" fill="#7A7A74" font-family="Arial, sans-serif" font-size="20">Weekly reminder preview</text>
  <text x="646" y="578" fill="#123524" font-family="Georgia, serif" font-size="42" font-weight="700">Personalized guidance appears after login</text>
  <text x="646" y="624" fill="#4A4A46" font-family="Arial, sans-serif" font-size="20">The public homepage does not show real member reminders.</text>

  <rect x="78" y="700" width="1316" height="198" rx="28" fill="#123524"/>
  <text x="112" y="760" fill="#E7CF7A" font-family="Arial, sans-serif" font-size="20" letter-spacing="4">FREQUENCY REPORT</text>
  <text x="112" y="820" fill="#FFFFFF" font-family="Georgia, serif" font-size="42" font-weight="700">Preview report layout</text>
  <text x="112" y="866" fill="#C9D5CD" font-family="Arial, sans-serif" font-size="20">Actual member frequency reports appear after login.</text>
</svg>
